
<svg version="1.0" xmlns="http://www.w3.org/2000/svg" width="4000" height="2666.667" viewBox="0 0 3000 2000"><path d="M126 999.5V1387h33V612h-33v387.5zM172 999.5V1387h16V612h-16v387.5zM206 999.5V1387h61V612h-61v387.5zM291 999.5V1387h16V612h-16v387.5zM347 999.5V1387h62V612h-62v387.5zM426 999.5V1387h32V612h-32v387.5zM489 999.5V1387h16V612h-16v387.5zM526 999.5V1387h16V612h-16v387.5zM563 999.5V1387h16V612h-16v387.5zM605 999.5V1387h62l-.2-387.3-.3-387.2-30.7-.3-30.8-.2v387.5zM678 999.5V1387h32V612h-32v387.5zM724 999.5V1387h16V612h-16v387.5zM757 999.5V1387h62V612h-62v387.5zM842 999.5V1387h17l-.2-387.3-.3-387.2-8.2-.3-8.3-.3v387.6zM899 999.5V1387h61V612h-61v387.5zM977 999.5V1387h33V612h-33v387.5zM1040 999.5V1387h16V612h-16v387.5zM1077 999.5V1387h17l-.2-387.3-.3-387.2-8.2-.3-8.3-.3v387.6zM1114.7 612.7c-.4.3-.7 174.7-.7 387.5V1387h17V612h-7.8c-4.3 0-8.2.3-8.5.7zM1157 999.5V1387h61V612h-61v387.5zM1229 999.5V1387h33V612h-33v387.5zM1275 999.5V1387h16V612h-16v387.5zM1309 999.5V1387h61V612h-61v387.5zM1394 999.5V1387h16V612h-16v387.5zM1450 999.5V1387h62V612h-62v387.5zM1529 999.5V1387h32V612h-32v387.5zM1592 999.5V1387h16V612h-16v387.5zM1629 999.5V1387h16V612h-16v387.5zM1666 999.5V1387h16V612h-16v387.5zM1708 999.5V1387h62V612h-62v387.5zM1781 999.5V1387h33l-.2-387.3-.3-387.2-16.2-.3-16.3-.2v387.5zM1827 999.5V1387h16V612h-16v387.5zM1860 999.5V1387h62V612h-62v387.5zM1945 999.5V1387h17l-.2-387.3-.3-387.2-8.2-.3-8.3-.3v387.6zM2002 999.5V1387h61V612h-61v387.5zM2080 999.5V1387h33V612h-33v387.5zM2143 999.5V1387h16V612h-16v387.5zM2180 999.5V1387h17l-.2-387.3-.3-387.2-8.2-.3-8.3-.3v387.6zM2217.7 612.7c-.4.3-.7 174.7-.7 387.5V1387h17V612h-7.8c-4.3 0-8.2.3-8.5.7zM2260 999.5V1387h61V612h-61v387.5zM2332 999.5V1387h33V612h-33v387.5zM2378 999.5V1387h16V612h-16v387.5zM2412 999.5V1387h61V612h-61v387.5zM2497 999.5V1387h16V612h-16v387.5zM2553.7 612.7c-.4.3-.7 174.7-.7 387.5V1387h62V612h-30.3c-16.7 0-30.7.3-31 .7zM2632 999.5V1387h32V612h-32v387.5zM2695 999.5V1387h16V612h-16v387.5zM2732 999.5V1387h16V612h-16v387.5zM2769 999.5V1387h16V612h-16v387.5zM2811 999.5V1387h62V612h-62v387.5z"/></svg>