<svg width="183" height="30" viewBox="0 0 183 30" fill="none" xmlns="http://www.w3.org/2000/svg">
<rect x="44" width="30" height="30" rx="7" fill="#0062FF"/>
<path d="M65.9037 17.5329C66.7684 17.2129 67.3855 16.3811 67.3855 15.4052C67.3855 14.1524 66.3701 13.137 65.1173 13.137C63.8653 13.137 62.849 14.1524 62.849 15.4052C62.849 16.3811 63.4653 17.2129 64.3309 17.5329C63.6699 18.2587 62.9905 19.6993 62.4651 20.9917C61.773 19.3238 60.9074 17.5346 60.0621 16.6084C61.2316 16.1765 62.0651 15.0516 62.0651 13.7323C62.0651 12.0391 60.6927 10.6658 58.9995 10.6658C57.3063 10.6658 55.9339 12.0391 55.9339 13.7323C55.9339 15.0516 56.7675 16.1756 57.937 16.6084C57.0925 17.5346 56.2261 19.3238 55.5348 20.9917C55.0103 19.6993 54.33 18.2587 53.669 17.5337C54.5346 17.2138 55.1509 16.3819 55.1509 15.4061C55.1509 14.1532 54.1355 13.1378 52.8826 13.1378C51.6298 13.1378 50.6152 14.1532 50.6152 15.4061C50.6152 16.3819 51.2315 17.2138 52.0962 17.5337C51.4125 18.2831 50.7095 19.7978 50.1782 21.1222C53.733 24.6416 59.0004 27 59.0004 27C59.0004 27 64.2677 24.6408 67.8225 21.1214C67.2904 19.7969 66.5873 18.2822 65.9037 17.5329Z" fill="white"/>
<path d="M58.9994 3.00049C52.3731 3.00049 47.0005 8.37309 47.0005 15.0002C47.0005 16.7692 47.8568 18.4481 49.1105 19.9594C49.3664 19.4096 49.6358 18.8775 49.9129 18.4085C49.0347 17.2095 48.5893 16.0662 48.5893 15.0002C48.5893 9.25968 53.2597 4.58844 59.0002 4.58844C64.7408 4.58844 69.412 9.25884 69.412 15.0002C69.412 16.0662 68.9658 17.2095 68.0876 18.4085C68.3638 18.8775 68.634 19.4096 68.89 19.9594C70.1428 18.4472 71 16.7692 71 15.0002C70.9991 8.37309 65.6274 3.00049 58.9994 3.00049Z" fill="white"/>
<path d="M10.04 7.96V17.52C10.04 19 9.62 20.14 8.78 20.94C7.95333 21.74 6.83333 22.14 5.42 22.14C3.94 22.14 2.75333 21.72 1.86 20.88C0.966667 20.04 0.52 18.8467 0.52 17.3H3.92C3.92 17.8867 4.04 18.3333 4.28 18.64C4.52 18.9333 4.86667 19.08 5.32 19.08C5.73333 19.08 6.05333 18.9467 6.28 18.68C6.50667 18.4133 6.62 18.0267 6.62 17.52V7.96H10.04ZM19.4425 22.14C18.1225 22.14 16.9092 21.8333 15.8025 21.22C14.7092 20.6067 13.8358 19.7533 13.1825 18.66C12.5425 17.5533 12.2225 16.3133 12.2225 14.94C12.2225 13.5667 12.5425 12.3333 13.1825 11.24C13.8358 10.1467 14.7092 9.29333 15.8025 8.68C16.9092 8.06667 18.1225 7.76 19.4425 7.76C20.7625 7.76 21.9692 8.06667 23.0625 8.68C24.1692 9.29333 25.0358 10.1467 25.6625 11.24C26.3025 12.3333 26.6225 13.5667 26.6225 14.94C26.6225 16.3133 26.3025 17.5533 25.6625 18.66C25.0225 19.7533 24.1558 20.6067 23.0625 21.22C21.9692 21.8333 20.7625 22.14 19.4425 22.14ZM19.4425 19.02C20.5625 19.02 21.4558 18.6467 22.1225 17.9C22.8025 17.1533 23.1425 16.1667 23.1425 14.94C23.1425 13.7 22.8025 12.7133 22.1225 11.98C21.4558 11.2333 20.5625 10.86 19.4425 10.86C18.3092 10.86 17.4025 11.2267 16.7225 11.96C16.0558 12.6933 15.7225 13.6867 15.7225 14.94C15.7225 16.18 16.0558 17.1733 16.7225 17.92C17.4025 18.6533 18.3092 19.02 19.4425 19.02ZM37.0252 14.8C37.8385 14.9733 38.4918 15.38 38.9852 16.02C39.4785 16.6467 39.7252 17.3667 39.7252 18.18C39.7252 19.3533 39.3118 20.2867 38.4852 20.98C37.6718 21.66 36.5318 22 35.0652 22H28.5252V7.96H34.8452C36.2718 7.96 37.3852 8.28667 38.1852 8.94C38.9985 9.59333 39.4052 10.48 39.4052 11.6C39.4052 12.4267 39.1852 13.1133 38.7452 13.66C38.3185 14.2067 37.7452 14.5867 37.0252 14.8ZM31.9452 13.64H34.1852C34.7452 13.64 35.1718 13.52 35.4652 13.28C35.7718 13.0267 35.9252 12.66 35.9252 12.18C35.9252 11.7 35.7718 11.3333 35.4652 11.08C35.1718 10.8267 34.7452 10.7 34.1852 10.7H31.9452V13.64ZM34.4652 19.24C35.0385 19.24 35.4785 19.1133 35.7852 18.86C36.1052 18.5933 36.2652 18.2133 36.2652 17.72C36.2652 17.2267 36.0985 16.84 35.7652 16.56C35.4452 16.28 34.9985 16.14 34.4252 16.14H31.9452V19.24H34.4652ZM83.2733 19.36H87.7533V22H79.8533V7.96H83.2733V19.36ZM96.0245 22.14C94.7045 22.14 93.4912 21.8333 92.3845 21.22C91.2912 20.6067 90.4179 19.7533 89.7645 18.66C89.1245 17.5533 88.8045 16.3133 88.8045 14.94C88.8045 13.5667 89.1245 12.3333 89.7645 11.24C90.4179 10.1467 91.2912 9.29333 92.3845 8.68C93.4912 8.06667 94.7045 7.76 96.0245 7.76C97.3445 7.76 98.5512 8.06667 99.6445 8.68C100.751 9.29333 101.618 10.1467 102.245 11.24C102.885 12.3333 103.205 13.5667 103.205 14.94C103.205 16.3133 102.885 17.5533 102.245 18.66C101.605 19.7533 100.738 20.6067 99.6445 21.22C98.5512 21.8333 97.3445 22.14 96.0245 22.14ZM96.0245 19.02C97.1445 19.02 98.0379 18.6467 98.7045 17.9C99.3845 17.1533 99.7245 16.1667 99.7245 14.94C99.7245 13.7 99.3845 12.7133 98.7045 11.98C98.0379 11.2333 97.1445 10.86 96.0245 10.86C94.8912 10.86 93.9845 11.2267 93.3045 11.96C92.6379 12.6933 92.3045 13.6867 92.3045 14.94C92.3045 16.18 92.6379 17.1733 93.3045 17.92C93.9845 18.6533 94.8912 19.02 96.0245 19.02ZM104.527 14.96C104.527 13.5733 104.827 12.34 105.427 11.26C106.027 10.1667 106.861 9.32 107.927 8.72C109.007 8.10667 110.227 7.8 111.587 7.8C113.254 7.8 114.681 8.24 115.867 9.12C117.054 10 117.847 11.2 118.247 12.72H114.487C114.207 12.1333 113.807 11.6867 113.287 11.38C112.781 11.0733 112.201 10.92 111.547 10.92C110.494 10.92 109.641 11.2867 108.987 12.02C108.334 12.7533 108.007 13.7333 108.007 14.96C108.007 16.1867 108.334 17.1667 108.987 17.9C109.641 18.6333 110.494 19 111.547 19C112.201 19 112.781 18.8467 113.287 18.54C113.807 18.2333 114.207 17.7867 114.487 17.2H118.247C117.847 18.72 117.054 19.92 115.867 20.8C114.681 21.6667 113.254 22.1 111.587 22.1C110.227 22.1 109.007 21.8 107.927 21.2C106.861 20.5867 106.027 19.74 105.427 18.66C104.827 17.58 104.527 16.3467 104.527 14.96ZM129.082 19.52H123.842L123.002 22H119.422L124.502 7.96H128.462L133.542 22H129.922L129.082 19.52ZM128.202 16.88L126.462 11.74L124.742 16.88H128.202ZM145.188 7.96V10.7H141.468V22H138.048V10.7H134.328V7.96H145.188ZM150.324 7.96V22H146.904V7.96H150.324ZM159.443 22.14C158.123 22.14 156.909 21.8333 155.803 21.22C154.709 20.6067 153.836 19.7533 153.183 18.66C152.542 17.5533 152.222 16.3133 152.222 14.94C152.222 13.5667 152.542 12.3333 153.183 11.24C153.836 10.1467 154.709 9.29333 155.803 8.68C156.909 8.06667 158.123 7.76 159.443 7.76C160.763 7.76 161.969 8.06667 163.063 8.68C164.169 9.29333 165.036 10.1467 165.663 11.24C166.303 12.3333 166.623 13.5667 166.623 14.94C166.623 16.3133 166.303 17.5533 165.663 18.66C165.023 19.7533 164.156 20.6067 163.063 21.22C161.969 21.8333 160.763 22.14 159.443 22.14ZM159.443 19.02C160.563 19.02 161.456 18.6467 162.122 17.9C162.803 17.1533 163.143 16.1667 163.143 14.94C163.143 13.7 162.803 12.7133 162.122 11.98C161.456 11.2333 160.563 10.86 159.443 10.86C158.309 10.86 157.403 11.2267 156.723 11.96C156.056 12.6933 155.723 13.6867 155.723 14.94C155.723 16.18 156.056 17.1733 156.723 17.92C157.403 18.6533 158.309 19.02 159.443 19.02ZM181.085 22H177.665L171.945 13.34V22H168.525V7.96H171.945L177.665 16.66V7.96H181.085V22Z" fill="#4A4A54"/>
</svg>
