<svg width="140" height="140" viewBox="0 0 140 140" fill="none" xmlns="http://www.w3.org/2000/svg">
<rect opacity="0.01" width="140" height="140" fill="white"/>
<path fill-rule="evenodd" clip-rule="evenodd" d="M19 60L70 20L121 60V112C121 116.418 117.418 120 113 120H27C22.5817 120 19 116.418 19 112V60Z" fill="#131523"/>
<path fill-rule="evenodd" clip-rule="evenodd" d="M29 32C29 29.7909 30.7909 28 33 28H99L111 40V98H29V32Z" fill="#0030A6"/>
<path fill-rule="evenodd" clip-rule="evenodd" d="M29 28H99V40H111V108H29V28Z" fill="#336DFF"/>
<rect x="50" y="69" width="40" height="4" rx="2" fill="white"/>
<rect x="60" y="77" width="20" height="4" rx="2" fill="white"/>
<path fill-rule="evenodd" clip-rule="evenodd" d="M79.1129 41.5594L81.8874 44.4406L66.9737 58.802L59.5859 51.4142L62.4144 48.5858L67.0262 53.197L79.1129 41.5594Z" fill="white"/>
<path fill-rule="evenodd" clip-rule="evenodd" d="M19 60L67.5314 98.0639C68.9808 99.2007 71.0192 99.2007 72.4686 98.0639L121 60V116C121 118.209 119.209 120 117 120H23C20.7909 120 19 118.209 19 116V60Z" fill="#D7DBEC"/>
</svg>
