<svg xmlns="http://www.w3.org/2000/svg" viewBox="0 0 36 36" id="udacity"><path fill="#EFEFEF" d="M13.411 34.999c6.298-2.859 12.105-1.559 15.14-2.936 3.035-1.378 8.617-6.016 2.28-19.978S14.99-.035 11.651 1.48c-15.632 7.095-9.395 38.582 1.76 33.519z"></path><path fill="#A4AFC1" d="M31.125 3.41h2v1h-2zM25.375 3.41h2v1h-2zM28.875-.09h1v2h-1zM32.125 23.999c-.827 0-1.5-.673-1.5-1.5s.673-1.5 1.5-1.5 1.5.673 1.5 1.5-.673 1.5-1.5 1.5zm0-2a.5.5 0 1 0 .002 1.002.5.5 0 0 0-.002-1.002z"></path><path fill="#F3F3F1" d="M14.576 18V6.75L6.75 10.663v11.25a7.337 7.337 0 0 0 7.337 7.337 7.33 7.33 0 0 0 6.544-4.032c-3.44-.607-6.055-3.604-6.055-7.218z"></path><path fill="#2FDF84" d="M20.631 25.218a7.32 7.32 0 0 0 1.282.119A7.337 7.337 0 0 0 29.25 18V6.75l-7.826 3.913v11.25c0 1.19-.29 2.311-.793 3.305z"></path><path fill="#D5DBE1" d="M9 21.913v-11.25l5.576-2.788V6.75L6.75 10.663v11.25a7.337 7.337 0 0 0 7.337 7.337c.387 0 .766-.035 1.136-.093C11.701 28.619 9 25.585 9 21.913z"></path><path fill="#00B871" d="M22.881 25.218a7.298 7.298 0 0 0 .793-3.305v-11.25l5.576-2.788V6.75l-7.826 3.913v11.25c0 1.19-.29 2.311-.793 3.305a7.32 7.32 0 0 0 1.282.119c.386 0 .763-.039 1.133-.096-.054-.009-.11-.013-.165-.023z"></path><path d="M14.087 30C9.628 30 6 26.372 6 21.913v-11.25a.75.75 0 0 1 .415-.671l7.826-3.913a.748.748 0 0 1 1.085.671V18c0 3.04 2.071 5.606 4.876 6.361a6.554 6.554 0 0 0 .472-2.448v-11.25a.75.75 0 0 1 .415-.671l7.826-3.913A.748.748 0 0 1 30 6.75V18c0 4.459-3.628 8.087-8.087 8.087-.295 0-.587-.016-.874-.047A8.09 8.09 0 0 1 14.087 30zM7.5 11.127v10.786a6.595 6.595 0 0 0 6.587 6.587 6.582 6.582 0 0 0 5.38-2.791C16.2 24.67 13.826 21.607 13.826 18V7.964L7.5 11.127zm14.221 13.457c3.678.124 6.779-2.887 6.779-6.584V7.964l-6.326 3.163v10.786c0 .936-.16 1.835-.453 2.671z"></path><path d="m17.668 27.446 6.847-3.394.667 1.344-6.848 3.394z"></path></svg>